<svg width="125" height="127" viewBox="0 0 125 127" fill="none" xmlns="http://www.w3.org/2000/svg">
<path d="M33.6904 33.3091L19.0137 23.9052C17.7474 23.1268 17.5398 21.3726 18.5881 20.3243L24.0997 14.8127C25.1584 13.754 26.9437 13.9824 27.7014 15.2798L36.8769 30.1952C38.0809 32.2504 35.7248 34.5547 33.6904 33.3091Z" fill="#FFC107"/>
<path d="M20.8613 78.5431L3.81802 78.8856C2.33374 78.9168 1.27503 80.3284 1.64869 81.7608L3.63119 89.2963C4.01523 90.7495 5.66558 91.4449 6.97341 90.7183L22.0342 82.8402C24.1101 81.6674 23.2486 78.4912 20.8613 78.5431Z" fill="#FFC107"/>
<path d="M60.4489 107.492L56.7123 124.089C56.3697 125.531 57.4596 126.922 58.9439 126.922H66.7389C68.244 126.922 69.3338 125.5 68.9601 124.047L64.9017 107.45C64.2997 105.136 61.0094 105.167 60.4489 107.492Z" fill="#FFC107"/>
<path d="M90.861 33.3091L105.538 23.9052C106.804 23.1268 107.012 21.3726 105.963 20.3243L100.452 14.8127C99.393 13.754 97.6077 13.9824 96.85 15.2798L87.6745 30.1952C86.4705 32.2504 88.8266 34.5547 90.861 33.3091Z" fill="#FFC107"/>
<path d="M103.69 78.5431L120.733 78.8856C122.218 78.9168 123.276 80.3284 122.903 81.7608L120.92 89.2963C120.536 90.7495 118.886 91.4449 117.578 90.7183L102.517 82.8402C100.441 81.6674 101.303 78.4912 103.69 78.5431Z" fill="#FFC107"/>
<path d="M66.4794 2.60657L80.4503 34.4718C81.5194 36.911 83.834 38.5821 86.4912 38.8209L120.526 41.8725C124.377 42.4329 125.913 47.1557 123.121 49.8751L97.4832 71.4127C95.4073 73.1564 94.4627 75.8967 95.0336 78.5434L102.486 113.429C103.14 117.259 99.1231 120.186 95.6771 118.37L65.9708 100.974C63.6873 99.6347 60.8641 99.6347 58.5806 100.974L28.8743 118.359C25.4386 120.165 21.4114 117.249 22.0653 113.419L29.5178 78.5331C30.0783 75.8863 29.1441 73.1461 27.0682 71.4023L1.42032 49.8855C-1.3614 47.1764 0.174776 42.4433 4.01521 41.8828L38.0498 38.8312C40.707 38.5925 43.0216 36.9214 44.0907 34.4822L58.0616 2.61695C59.795 -0.870584 64.7564 -0.870584 66.4794 2.60657Z" fill="#FDD835"/>
<path d="M65.4622 36.3814L63.0957 12.9028C63.0022 11.595 62.7324 9.35303 64.829 9.35303C66.4898 9.35303 67.3928 12.8094 67.3928 12.8094L74.4924 31.6587C77.1703 38.831 76.0701 41.2909 73.4856 42.7441C70.517 44.4048 66.1369 43.1074 65.4622 36.3814Z" fill="#FFFF8D"/>
<path d="M94.743 69.3269L115.108 53.4357C116.115 52.595 117.931 51.256 116.478 49.7302C115.326 48.5262 112.212 50.2596 112.212 50.2596L94.3901 57.2243C89.0757 59.0615 85.5467 61.7809 85.2353 65.2062C84.8305 69.7732 88.9304 73.2918 94.743 69.3269Z" fill="#F4B400"/>
</svg>
